<?xml version="1.0" encoding="iso-8859-1"?>
<!-- Generator: Adobe Illustrator 19.0.0, SVG Export Plug-In . SVG Version: 6.00 Build 0)  -->
<svg version="1.1" id="Capa_1" xmlns="http://www.w3.org/2000/svg" xmlns:xlink="http://www.w3.org/1999/xlink" x="0px" y="0px"
	 viewBox="0 0 512 512" style="enable-background:new 0 0 512 512;" xml:space="preserve">
<rect x="167.01" y="462" style="fill:#7D9BFF;" width="178.05" height="40"/>
<rect x="216.04" y="408" style="fill:#EDF2FA;" width="80" height="53.996"/>
<rect x="35.13" y="350.01" style="fill:#7D9BFF;" width="439.87" height="57.99"/>
<rect x="35.13" y="95" style="fill:#72D8FF;" width="439.87" height="255.01"/>
<rect x="84" y="10" style="fill:#FFFFFF;" width="344" height="340.01"/>
<rect x="10" y="10" style="fill:#C9F3FF;" width="104" height="104"/>
<polygon style="fill:#A0E557;" points="35.132,112.375 81.716,65.791 114.188,98.263 114,112.375 "/>
<path style="fill:#FFB954;" d="M302,217.009v119.856c0,7.219,5.852,13.072,13.072,13.072h22.784L364,376.081l26.144-26.144h98.784
	c7.219,0,13.072-5.852,13.072-13.072V217.009c0-7.219-5.852-13.072-13.072-13.072H315.072C307.852,203.938,302,209.79,302,217.009z"
	/>
<g>
	<path style="fill:#FF5D5D;" d="M436.525,289.183l-38.225,24.5c-6.63,4.25-15.338-0.511-15.338-8.387v-49.002
		c0-7.876,8.707-12.637,15.338-8.387l38.225,24.501C442.64,276.328,442.64,285.263,436.525,289.183z"/>
	<path style="fill:#FF5D5D;" d="M143.445,204.841l16.416-5.305c4.095,3.316,8.716,6.008,13.718,7.932l3.614,16.872h29.239
		l3.614-16.872c5.002-1.924,9.623-4.616,13.718-7.932l16.416,5.305l14.64-25.313l-12.813-11.574
		c0.404-2.582,0.616-5.228,0.616-7.924s-0.212-5.342-0.616-7.924l12.813-11.574l-14.64-25.313l-16.416,5.305
		c-4.095-3.316-8.716-6.008-13.718-7.932l-3.614-16.872h-29.239l-3.614,16.872c-5.002,1.924-9.623,4.616-13.718,7.932l-16.416-5.305
		l-14.64,25.313l12.813,11.574c-0.404,2.582-0.616,5.228-0.616,7.924s0.212,5.342,0.616,7.924l-12.813,11.574L143.445,204.841z"/>
</g>
<path d="M384,118.341h-65c-5.522,0-10,4.478-10,10s4.478,10,10,10h65c5.522,0,10-4.478,10-10S389.522,118.341,384,118.341z"/>
<path d="M384,158.341h-65c-5.522,0-10,4.478-10,10s4.478,10,10,10h65c5.522,0,10-4.478,10-10S389.522,158.341,384,158.341z"/>
<path d="M128,295c-5.522,0-10,4.478-10,10s4.478,10,10,10h63.813c5.522,0,10-4.478,10-10s-4.478-10-10-10H128z"/>
<path d="M234,295c-2.63,0-5.21,1.069-7.07,2.93S224,302.37,224,305s1.069,5.21,2.93,7.069c1.86,1.86,4.44,2.931,7.07,2.931
	s5.21-1.07,7.069-2.931C242.93,310.21,244,307.63,244,305s-1.07-5.21-2.931-7.07C239.21,296.069,236.63,295,234,295z"/>
<path d="M234,255H128c-5.522,0-10,4.478-10,10s4.478,10,10,10h106c5.522,0,10-4.478,10-10S239.522,255,234,255z"/>
<path d="M488.928,193.938H485v-98.94c0-5.522-4.478-10-10-10h-37V10c0-5.522-4.478-10-10-10H158.667c-5.522,0-10,4.478-10,10
	s4.478,10,10,10H418v173.938H315.072c-12.722,0-23.072,10.351-23.072,23.072v119.855c0,12.722,10.351,23.072,23.072,23.072h18.642
	l23.215,23.215c1.953,1.952,4.512,2.929,7.071,2.929s5.118-0.977,7.071-2.929l23.215-23.215H465V398H296.036h-80H47v-38.002h36.768
	C83.846,360,83.922,360.01,84,360.01s0.154-0.01,0.232-0.012h180.101c5.522,0,10-4.478,10-10s-4.478-10-10-10H94V124h20
	c5.522,0,10-4.478,10-10V10c0-5.522-4.478-10-10-10H10C4.478,0,0,4.478,0,10v104c0,5.522,4.478,10,10,10h64v215.998H47v-190.53
	c0-5.522-4.478-10-10-10s-10,4.478-10,10V408c0,5.522,4.478,10,10,10h169.036v33.996h-39.024c-5.522,0-10,4.478-10,10V502
	c0,5.522,4.478,10,10,10h178.049c5.522,0,10-4.478,10-10v-40.004c0-5.522-4.478-10-10-10h-39.024V418H475c5.522,0,10-4.478,10-10
	v-48.063h3.928c12.722,0,23.072-10.351,23.072-23.072V217.01C512,204.288,501.649,193.938,488.928,193.938z M57.649,104
	l24.066-24.066L104,102.218V104H57.649z M20,20h84v53.933L88.787,58.72c-3.906-3.904-10.236-3.904-14.143,0L29.364,104H20V20z
	 M335.061,492H177.012v-20.004h39.024h80h39.024V492H335.061z M286.036,451.996h-60V418h60V451.996z M438,104.998h27v88.939h-27
	V104.998z M492,336.865c0,1.694-1.378,3.072-3.072,3.072h-98.784c-2.652,0-5.195,1.054-7.071,2.929L364,361.938l-19.072-19.072
	c-1.876-1.875-4.419-2.929-7.071-2.929h-22.784c-1.694,0-3.072-1.378-3.072-3.072V217.01c0-1.694,1.378-3.072,3.072-3.072H418v6.39
	c0,5.522,4.478,10,10,10s10-4.478,10-10v-6.39h50.928c1.694,0,3.072,1.378,3.072,3.072V336.865z"/>
<path d="M441.922,263.989l-38.226-24.501c-6.145-3.938-13.943-4.212-20.349-0.709s-10.386,10.215-10.386,17.516v49.002
	c0,7.301,3.979,14.012,10.386,17.515c2.992,1.636,6.287,2.448,9.576,2.448c3.753,0,7.497-1.058,10.772-3.157l38.226-24.501h0.001
	c5.753-3.689,9.188-9.972,9.188-16.806C451.111,273.961,447.676,267.679,441.922,263.989z M392.962,305.224l0.003-48.858
	l38.113,24.432L392.962,305.224z"/>
<path d="M122.102,147.953l9.025,8.152c-0.084,1.308-0.126,2.618-0.126,3.925s0.042,2.617,0.126,3.925l-9.025,8.152
	c-3.502,3.163-4.315,8.343-1.953,12.428l14.641,25.313c2.359,4.08,7.245,5.958,11.731,4.509l11.549-3.732
	c2.182,1.459,4.452,2.771,6.802,3.934l2.544,11.878c0.988,4.611,5.063,7.905,9.778,7.905h29.24c4.716,0,8.79-3.294,9.778-7.905
	l2.544-11.878c2.35-1.162,4.62-2.475,6.802-3.934l11.549,3.732c4.487,1.449,9.373-0.431,11.731-4.509l14.641-25.313
	c2.362-4.085,1.549-9.265-1.953-12.428l-9.025-8.152c0.084-1.308,0.126-2.618,0.126-3.925s-0.042-2.617-0.126-3.925l9.025-8.152
	c3.502-3.163,4.315-8.343,1.953-12.428l-14.641-25.313c-2.358-4.079-7.244-5.958-11.731-4.509l-11.549,3.732
	c-2.183-1.458-4.452-2.771-6.802-3.933l-2.544-11.878c-0.988-4.611-5.063-7.905-9.778-7.905h-29.24c-4.716,0-8.79,3.294-9.778,7.905
	l-2.544,11.878c-2.35,1.162-4.619,2.475-6.802,3.933l-11.549-3.732c-4.482-1.447-9.371,0.429-11.731,4.509l-14.641,25.313
	C117.786,139.61,118.6,144.79,122.102,147.953z M151.497,166.403c-0.329-2.098-0.496-4.242-0.496-6.373s0.167-4.275,0.496-6.373
	c0.523-3.335-0.671-6.709-3.176-8.972l-6.81-6.15l6.545-11.316l8.729,2.821c3.216,1.038,6.742,0.383,9.369-1.745
	c3.329-2.696,7.035-4.84,11.014-6.37c3.153-1.212,5.48-3.935,6.188-7.238l1.921-8.967h13.07l1.921,8.967
	c0.708,3.304,3.035,6.026,6.188,7.238c3.979,1.53,7.685,3.674,11.014,6.37c2.627,2.128,6.151,2.783,9.369,1.745l8.729-2.821
	l6.545,11.316l-6.81,6.15c-2.505,2.263-3.699,5.637-3.176,8.972c0.329,2.098,0.496,4.242,0.496,6.373s-0.167,4.275-0.496,6.373
	c-0.523,3.335,0.671,6.709,3.176,8.972l6.81,6.15l-6.546,11.316l-8.729-2.821c-3.218-1.039-6.742-0.383-9.369,1.745
	c-3.329,2.696-7.035,4.84-11.014,6.37c-3.153,1.212-5.48,3.935-6.188,7.238l-1.921,8.967h-13.07l-1.921-8.967
	c-0.708-3.304-3.035-6.026-6.188-7.238c-3.979-1.53-7.685-3.674-11.014-6.37c-2.627-2.129-6.153-2.784-9.369-1.745l-8.729,2.821
	l-6.546-11.316l6.81-6.15C150.826,173.112,152.021,169.738,151.497,166.403z"/>
<path d="M202.49,61.069c1.859-1.859,2.93-4.439,2.93-7.069s-1.07-5.21-2.93-7.07c-1.87-1.86-4.44-2.93-7.07-2.93
	c-2.641,0-5.21,1.069-7.08,2.93c-1.86,1.86-2.92,4.44-2.92,7.07s1.06,5.21,2.92,7.069c1.87,1.86,4.439,2.931,7.08,2.931
	C198.05,64,200.62,62.93,202.49,61.069z"/>
<path d="M165.74,61.069c1.859-1.859,2.93-4.439,2.93-7.069c0-2.641-1.07-5.21-2.93-7.07c-1.87-1.86-4.44-2.93-7.07-2.93
	c-2.641,0-5.21,1.069-7.07,2.93c-1.87,1.86-2.93,4.43-2.93,7.07c0,2.63,1.06,5.21,2.93,7.069c1.86,1.86,4.43,2.931,7.07,2.931
	C161.3,64,163.87,62.93,165.74,61.069z"/>
<path d="M384,44H232.163c-5.522,0-10,4.478-10,10s4.478,10,10,10H384c5.522,0,10-4.478,10-10S389.522,44,384,44z"/>
<path d="M37.87,51c2.64,0,5.22-1.07,7.069-2.931c1.87-1.859,2.94-4.439,2.94-7.069s-1.07-5.21-2.94-7.07
	C43.08,32.069,40.51,31,37.87,31c-2.63,0-5.2,1.069-7.07,2.93c-1.86,1.86-2.93,4.44-2.93,7.07s1.069,5.21,2.93,7.069
	C32.67,49.93,35.24,51,37.87,51z"/>
<g>
</g>
<g>
</g>
<g>
</g>
<g>
</g>
<g>
</g>
<g>
</g>
<g>
</g>
<g>
</g>
<g>
</g>
<g>
</g>
<g>
</g>
<g>
</g>
<g>
</g>
<g>
</g>
<g>
</g>
</svg>
