<svg height="512pt" viewBox="0 0 512 512" width="512pt" xmlns="http://www.w3.org/2000/svg"><path d="m136 320h42c7.554688 0 14.667969-3.558594 19.199219-9.601562l30-40c3.117187-4.152344 4.800781-9.207032 4.800781-14.398438v-72c35.347656 0 64 28.652344 64 64v64h104c13.253906 0 24 10.746094 24 24s-10.746094 24-24 24v24c0 13.253906-10.746094 24-24 24v24c0 13.253906-10.746094 24-24 24v24c0 13.253906-10.746094 24-24 24h-90l-48-24h-54zm0 0" fill="#ffe082"/><path d="m0 296h136v208h-136zm0 0" fill="#dce775"/><path d="m104 456c0 8.835938-7.164062 16-16 16s-16-7.164062-16-16 7.164062-16 16-16 16 7.164062 16 16zm0 0" fill="#fff"/><path d="m328 168v-48h-56l48-48v-64h184v160zm0 0" fill="#ff8a65"/><path d="m184 168h-56l-32 40-32-40h-56v-160h176zm0 0" fill="#cfd8dc"/><g fill="#fff"><path d="m408 48.230469c-10.980469-10.980469-28.785156-10.980469-39.769531 0-10.980469 10.984375-10.980469 28.789062 0 39.769531l39.769531 39.769531 39.769531-39.769531c10.980469-10.980469 10.980469-28.785156 0-39.769531-10.984375-10.980469-28.789062-10.980469-39.769531 0zm0 0"/><path d="m32 48h128v16h-128zm0 0"/><path d="m32 80h128v16h-128zm0 0"/><path d="m32 112h80v16h-80zm0 0"/><path d="m112 368h-16v-32h-32v-16h48zm0 0"/></g><path d="m400 304h-96v-56c-.042969-39.746094-32.253906-71.957031-72-72h-8v80c-.015625 3.460938-1.136719 6.824219-3.199219 9.601562l-30 40c-3.03125 4.015626-7.769531 6.386719-12.800781 6.398438h-34v-24h-144v16h128v192h-128v16h144v-24h44.113281l48 24h91.886719c17.671875 0 32-14.328125 32-32v-17.015625c14.121094-3.660156 23.984375-16.398437 24-30.984375v-17.015625c14.121094-3.660156 23.984375-16.398437 24-30.984375v-17.007812c15.617188-4.015626 25.808594-19.027344 23.777344-35.023438-2.03125-16-15.652344-27.984375-31.777344-27.96875zm0 48h-60v16h52v16c0 8.835938-7.164062 16-16 16h-60v16h52v16c0 8.835938-7.164062 16-16 16h-36v16h28v16c0 8.835938-7.164062 16-16 16h-88.113281l-48-24h-47.886719v-144h34c10.066406-.023438 19.542969-4.761719 25.601562-12.800781l30.007813-40c4.136719-5.546875 6.375-12.277344 6.390625-19.199219v-63.433594c27.535156 4.015625 47.964844 27.609375 48 55.433594v72h112c8.835938 0 16 7.164062 16 16s-7.164062 16-16 16zm0 0"/><path d="m112 456c0-13.253906-10.746094-24-24-24s-24 10.746094-24 24 10.746094 24 24 24 24-10.746094 24-24zm-32 0c0-4.417969 3.582031-8 8-8s8 3.582031 8 8-3.582031 8-8 8-8-3.582031-8-8zm0 0"/><path d="m312 0v68.6875l-59.3125 59.3125h67.3125v48h192v-176zm184 160h-160v-48h-44.6875l36.6875-36.6875v-59.3125h168zm0 0"/><path d="m96 220.800781 35.839844-44.800781h60.160156v-176h-192v176h60.160156zm-80-204.800781h160v144h-51.839844l-28.160156 35.199219-28.160156-35.199219h-51.839844zm0 0"/><path d="m408 139.078125 45.425781-45.421875c13.105469-13.105469 14.164063-34.007812 2.449219-48.371094-11.714844-14.363281-32.402344-17.53125-47.875-7.324218-15.472656-10.207032-36.160156-7.039063-47.875 7.324218-11.714844 14.363282-10.65625 35.265625 2.449219 48.371094zm-34.113281-85.191406c7.871093-7.828125 20.585937-7.828125 28.457031 0l5.65625 5.65625 5.65625-5.65625c7.859375-7.855469 20.597656-7.855469 28.457031 0 7.855469 7.859375 7.855469 20.597656 0 28.457031l-34.113281 34.113281-34.113281-34.113281c-7.832031-7.867188-7.832031-20.585938 0-28.457031zm0 0"/></svg>