<?xml version="1.0" encoding="iso-8859-1"?>
<!-- Generator: Adobe Illustrator 19.0.0, SVG Export Plug-In . SVG Version: 6.00 Build 0)  -->
<svg version="1.1" id="Capa_1" xmlns="http://www.w3.org/2000/svg" xmlns:xlink="http://www.w3.org/1999/xlink" x="0px" y="0px"
	 viewBox="0 0 512 512" style="enable-background:new 0 0 512 512;" xml:space="preserve">
<polygon style="fill:#EDF2FA;" points="260.621,416.688 502,416.688 502,85.21 426.779,10 204.424,10 204.424,416.688 "/>
<rect x="225" y="238.86" style="fill:#FFB954;" width="48" height="79.14"/>
<polyline style="fill:#7D9BFF;" points="426.779,10.964 426.779,85.221 501.036,85.221 "/>
<path style="fill:#B3B6C3;" d="M49,318h360c21.539,0,39,17.461,39,39v106c0,21.539-17.461,39-39,39H49c-21.539,0-39-17.461-39-39
	V357C10,335.461,27.461,318,49,318z"/>
<path style="fill:#FF5D5D;" d="M92.527,26.822c-45.562,0-82.498,36.936-82.498,82.498s36.936,82.498,82.498,82.498
	s82.498-36.936,82.498-82.498H92.527V26.822z"/>
<path style="fill:#2E9DE3;" d="M92.527,109.32V26.822c-22.781,0-43.406,9.234-58.335,24.163L92.527,109.32z"/>
<path style="fill:#FFB954;" d="M92.527,10v99.32h99.32C191.847,54.467,147.38,10,92.527,10z"/>
<rect x="313.05" y="276" style="fill:#FF5D5D;" width="48" height="42"/>
<rect x="400" y="254" style="fill:#A0E557;" width="48" height="64"/>
<path d="M509.07,78.139l-75.22-75.21C431.975,1.054,429.432,0,426.779,0H204.424c-5.522,0-10,4.478-10,10v31c0,5.522,4.478,10,10,10
	s10-4.478,10-10V20h202.355v65.221c0,5.522,4.478,10,10,10H492v311.467h-34V357c0-10.855-3.554-20.893-9.551-29.023
	C453.762,327.74,458,323.371,458,318v-64c0-5.522-4.478-10-10-10h-48c-5.522,0-10,4.478-10,10v54h-18.947v-32
	c0-5.522-4.478-10-10-10h-48c-5.522,0-10,4.478-10,10v32H283v-69.137c0-5.522-4.478-10-10-10h-26.333c-5.522,0-10,4.478-10,10
	s4.478,10,10,10H263V308h-24v-29.167C239,260.729,224.271,246,206.167,246h-16.893c-10.201,0-18.5-8.299-18.5-18.5
	s8.299-18.5,18.5-18.5h136.393c5.522,0,10-4.478,10-10s-4.478-10-10-10H189.274c-21.229,0-38.5,17.271-38.5,38.5
	s17.271,38.5,38.5,38.5h16.893c7.076,0,12.833,5.757,12.833,12.833V308H49c-27.019,0-49,21.981-49,49v106c0,27.019,21.981,49,49,49
	h360c27.019,0,49-21.981,49-49v-36.313h44c5.522,0,10-4.478,10-10V85.21C512,82.558,510.946,80.014,509.07,78.139z M410,264h28v44
	h-28V264z M323.053,286h28v22h-28V286z M438,463c0,15.99-13.01,29-29,29H49c-15.99,0-29-13.01-29-29V357c0-15.99,13.01-29,29-29h360
	c15.99,0,29,13.01,29,29V463z M436.779,34.14l41.087,41.081h-41.087V34.14z"/>
<path d="M101.439,381.439c2.63,0,5.21-1.069,7.07-2.93s2.93-4.44,2.93-7.07s-1.069-5.21-2.93-7.08c-1.86-1.85-4.44-2.92-7.07-2.92
	s-5.21,1.07-7.069,2.92c-1.86,1.87-2.931,4.45-2.931,7.08s1.07,5.21,2.931,7.07C96.229,380.37,98.81,381.439,101.439,381.439z"/>
<path d="M151.667,361.438h-7.708c-5.522,0-10,4.478-10,10s4.478,10,10,10h7.708c5.522,0,10-4.478,10-10
	S157.189,361.438,151.667,361.438z"/>
<path d="M186.479,381.439c2.63,0,5.21-1.069,7.07-2.93c1.86-1.87,2.93-4.44,2.93-7.07s-1.069-5.21-2.93-7.069
	c-1.86-1.87-4.44-2.931-7.07-2.931s-5.21,1.061-7.069,2.931c-1.86,1.859-2.931,4.439-2.931,7.069s1.07,5.21,2.931,7.07
	C181.27,380.37,183.85,381.439,186.479,381.439z"/>
<path d="M229,381.439c2.63,0,5.21-1.069,7.069-2.93c1.86-1.86,2.931-4.44,2.931-7.07c0-2.64-1.07-5.21-2.931-7.069
	c-1.859-1.86-4.439-2.931-7.069-2.931s-5.21,1.07-7.07,2.931c-1.86,1.859-2.93,4.43-2.93,7.069c0,2.63,1.069,5.21,2.93,7.07
	S226.37,381.439,229,381.439z"/>
<path d="M271.52,381.439c2.63,0,5.21-1.069,7.07-2.93s2.93-4.44,2.93-7.07c0-2.64-1.069-5.21-2.93-7.069
	c-1.86-1.87-4.44-2.931-7.07-2.931s-5.21,1.061-7.069,2.931c-1.86,1.85-2.931,4.43-2.931,7.069c0,2.63,1.07,5.21,2.931,7.07
	C266.31,380.37,268.89,381.439,271.52,381.439z"/>
<path d="M314.04,381.439c2.63,0,5.21-1.069,7.069-2.93c1.86-1.86,2.931-4.44,2.931-7.07s-1.07-5.21-2.931-7.069
	c-1.859-1.86-4.439-2.931-7.069-2.931s-5.21,1.07-7.07,2.931c-1.86,1.859-2.93,4.43-2.93,7.069c0,2.63,1.069,5.21,2.93,7.07
	S311.41,381.439,314.04,381.439z"/>
<path d="M356.56,381.439c2.63,0,5.21-1.069,7.07-2.93s2.93-4.44,2.93-7.07c0-2.64-1.069-5.21-2.93-7.069
	c-1.86-1.87-4.44-2.931-7.07-2.931s-5.21,1.061-7.069,2.931c-1.86,1.859-2.931,4.43-2.931,7.069c0,2.63,1.07,5.21,2.931,7.07
	C351.35,380.37,353.93,381.439,356.56,381.439z"/>
<path d="M101.439,451.939c-2.63,0-5.21,1.07-7.069,2.931c-1.86,1.859-2.931,4.43-2.931,7.069c0,2.63,1.07,5.21,2.931,7.07
	c1.859,1.86,4.439,2.93,7.069,2.93s5.21-1.069,7.07-2.93s2.93-4.44,2.93-7.07c0-2.64-1.069-5.21-2.93-7.069
	C106.649,453.01,104.069,451.939,101.439,451.939z"/>
<path d="M143.96,451.939c-2.63,0-5.21,1.061-7.07,2.931c-1.86,1.859-2.93,4.439-2.93,7.069s1.069,5.21,2.93,7.07
	s4.44,2.93,7.07,2.93s5.21-1.069,7.069-2.93c1.86-1.86,2.931-4.44,2.931-7.07c0-2.64-1.07-5.21-2.931-7.069
	C149.17,453,146.59,451.939,143.96,451.939z"/>
<path d="M271.731,451.938h-85.252c-5.522,0-10,4.478-10,10s4.478,10,10,10h42.482c0.013,0,0.026,0.002,0.039,0.002
	s0.026-0.002,0.039-0.002h42.442c0.013,0,0.026,0.002,0.039,0.002s0.026-0.002,0.039-0.002h0.173c5.522,0,10-4.478,10-10
	S277.254,451.938,271.731,451.938z"/>
<path d="M314.04,451.939c-2.63,0-5.21,1.07-7.07,2.931c-1.86,1.859-2.93,4.43-2.93,7.069c0,2.63,1.069,5.21,2.93,7.07
	s4.44,2.93,7.07,2.93s5.21-1.069,7.069-2.93c1.86-1.86,2.931-4.44,2.931-7.07c0-2.64-1.07-5.21-2.931-7.069
	C319.25,453.01,316.67,451.939,314.04,451.939z"/>
<path d="M363.652,451.938h-7.091c-5.522,0-10,4.478-10,10s4.478,10,10,10h7.091c5.522,0,10-4.478,10-10
	S369.175,451.938,363.652,451.938z"/>
<path d="M58.069,406.689c-2.63,0-5.21,1.061-7.069,2.92c-1.86,1.87-2.931,4.45-2.931,7.08s1.07,5.21,2.931,7.07
	c1.859,1.86,4.439,2.93,7.069,2.93c2.631,0,5.21-1.069,7.07-2.93c1.87-1.86,2.93-4.44,2.93-7.07s-1.06-5.21-2.93-7.08
	C63.279,407.75,60.7,406.689,58.069,406.689z"/>
<path d="M107,406.688h-6.195c-5.522,0-10,4.478-10,10s4.478,10,10,10H107c5.522,0,10-4.478,10-10S112.522,406.688,107,406.688z"/>
<path d="M143.54,426.689c2.62,0,5.2-1.069,7.069-2.93c1.86-1.86,2.931-4.44,2.931-7.07c0-2.64-1.07-5.21-2.931-7.069
	c-1.869-1.87-4.449-2.931-7.069-2.931c-2.641,0-5.21,1.061-7.08,2.931c-1.86,1.859-2.92,4.43-2.92,7.069c0,2.63,1.06,5.21,2.92,7.07
	C138.33,425.62,140.899,426.689,143.54,426.689z"/>
<path d="M186.27,426.689c2.63,0,5.21-1.069,7.07-2.93s2.93-4.44,2.93-7.07c0-2.64-1.069-5.21-2.93-7.069
	c-1.86-1.86-4.44-2.931-7.07-2.931s-5.21,1.07-7.069,2.931c-1.86,1.859-2.931,4.439-2.931,7.069s1.07,5.21,2.931,7.07
	C181.06,425.62,183.64,426.689,186.27,426.689z"/>
<path d="M229,426.688h7.333c5.522,0,10-4.478,10-10s-4.478-10-10-10H229c-5.522,0-10,4.478-10,10S223.478,426.688,229,426.688z"/>
<path d="M280.333,406.688h-8.602c-5.522,0-10,4.478-10,10s4.478,10,10,10h8.602c5.522,0,10-4.478,10-10
	S285.855,406.688,280.333,406.688z"/>
<path d="M314.46,406.689c-2.63,0-5.21,1.07-7.07,2.931c-1.86,1.859-2.93,4.43-2.93,7.069c0,2.63,1.069,5.21,2.93,7.07
	s4.44,2.93,7.07,2.93c2.64,0,5.21-1.069,7.069-2.93c1.87-1.86,2.931-4.44,2.931-7.07c0-2.64-1.061-5.21-2.931-7.069
	C319.67,407.76,317.1,406.689,314.46,406.689z"/>
<path d="M357.189,406.689c-2.63,0-5.199,1.061-7.069,2.92c-1.86,1.87-2.92,4.45-2.92,7.08s1.06,5.21,2.92,7.07
	c1.87,1.86,4.439,2.93,7.069,2.93c2.641,0,5.21-1.069,7.07-2.93c1.87-1.86,2.94-4.44,2.94-7.07s-1.07-5.21-2.94-7.08
	C362.399,407.75,359.83,406.689,357.189,406.689z"/>
<path d="M399.93,406.689c-2.64,0-5.21,1.061-7.07,2.931c-1.859,1.859-2.93,4.439-2.93,7.069s1.07,5.21,2.93,7.07
	c1.86,1.86,4.431,2.93,7.07,2.93c2.63,0,5.21-1.069,7.07-2.93c1.859-1.87,2.93-4.44,2.93-7.07s-1.07-5.21-2.93-7.069
	C405.14,407.75,402.56,406.689,399.93,406.689z"/>
<path d="M360.333,199c0,5.522,4.478,10,10,10h66.753c5.522,0,10-4.478,10-10s-4.478-10-10-10h-66.753
	C364.811,189,360.333,193.478,360.333,199z"/>
<path d="M92.527,201.817c47.624,0,86.953-36.18,91.955-82.497h7.364c5.522,0,10-4.478,10-10C201.847,49.041,152.807,0,92.527,0
	c-5.522,0-10,4.478-10,10v7.365C36.209,22.367,0.029,61.695,0.029,109.32C0.029,160.323,41.523,201.817,92.527,201.817z
	 M102.527,26.822v-6.267c41.281,4.618,74.146,37.483,78.764,78.765h-6.267h-72.497V26.822z M82.527,37.51v47.668L48.856,51.506
	C58.496,44.206,70,39.245,82.527,37.51z M34.713,65.648l50.743,50.744c0.002,0.002,0.004,0.003,0.006,0.005
	c1.809,1.806,4.307,2.924,7.065,2.924h71.81c-4.885,35.261-35.226,62.497-71.81,62.497c-39.976,0-72.498-32.522-72.498-72.497
	C20.029,92.931,25.508,77.804,34.713,65.648z"/>
<path d="M256.268,118h60.881c5.522,0,10-4.478,10-10s-4.478-10-10-10h-60.881c-5.522,0-10,4.478-10,10S250.745,118,256.268,118z"/>
<path d="M341.269,108c0,5.522,4.478,10,10,10h34.121c5.522,0,10-4.478,10-10s-4.478-10-10-10h-34.121
	C345.746,98,341.269,102.478,341.269,108z"/>
<path d="M341.672,54h-85.404c-5.522,0-10,4.478-10,10s4.478,10,10,10h85.404c5.522,0,10-4.478,10-10S347.194,54,341.672,54z"/>
<path d="M390.13,71.069c1.86-1.859,2.93-4.439,2.93-7.069c0-2.641-1.069-5.21-2.93-7.07S385.7,54,383.06,54
	c-2.63,0-5.21,1.069-7.069,2.93c-1.86,1.86-2.931,4.43-2.931,7.07c0,2.63,1.07,5.21,2.931,7.069C377.85,72.93,380.43,74,383.06,74
	C385.7,74,388.27,72.93,390.13,71.069z"/>
<path d="M256.268,162h80.487c5.522,0,10-4.478,10-10s-4.478-10-10-10h-80.487c-5.522,0-10,4.478-10,10S250.745,162,256.268,162z"/>
<path d="M375.92,159.069c1.859-1.859,2.93-4.439,2.93-7.069s-1.07-5.21-2.93-7.07c-1.87-1.86-4.44-2.93-7.08-2.93
	c-2.63,0-5.21,1.069-7.07,2.93c-1.859,1.86-2.93,4.44-2.93,7.07s1.07,5.21,2.93,7.069c1.87,1.86,4.44,2.931,7.07,2.931
	S374.05,160.93,375.92,159.069z"/>
<path d="M402.96,142c-2.63,0-5.2,1.069-7.061,2.93c-1.87,1.86-2.939,4.44-2.939,7.07s1.069,5.21,2.939,7.069
	c1.851,1.86,4.431,2.931,7.061,2.931c2.64,0,5.21-1.07,7.08-2.931c1.859-1.859,2.93-4.439,2.93-7.069s-1.07-5.21-2.93-7.07
	C408.17,143.069,405.6,142,402.96,142z"/>
<path d="M444.16,159.069c1.859-1.859,2.93-4.439,2.93-7.069s-1.07-5.21-2.93-7.07s-4.44-2.93-7.07-2.93
	c-2.64,0-5.21,1.069-7.07,2.93c-1.87,1.86-2.93,4.44-2.93,7.07s1.06,5.21,2.93,7.069c1.86,1.86,4.431,2.931,7.07,2.931
	C439.72,162,442.29,160.93,444.16,159.069z"/>
<g>
</g>
<g>
</g>
<g>
</g>
<g>
</g>
<g>
</g>
<g>
</g>
<g>
</g>
<g>
</g>
<g>
</g>
<g>
</g>
<g>
</g>
<g>
</g>
<g>
</g>
<g>
</g>
<g>
</g>
</svg>
