<?xml version="1.0" encoding="iso-8859-1"?>
<!-- Generator: Adobe Illustrator 19.0.0, SVG Export Plug-In . SVG Version: 6.00 Build 0)  -->
<svg version="1.1" id="Capa_1" xmlns="http://www.w3.org/2000/svg" xmlns:xlink="http://www.w3.org/1999/xlink" x="0px" y="0px"
	 viewBox="0 0 512.002 512.002" style="enable-background:new 0 0 512.002 512.002;" xml:space="preserve">
<path style="fill:#72D8FF;" d="M460.882,112.99l-25.23,34.785l23.872,57.568l42.441,6.724l0.036,87.682l-42.422,6.754
	l-23.835,57.604l25.247,34.754l-61.979,62.021l-34.785-25.23l-57.568,23.872l-6.724,42.441l-87.682,0.036L205.5,459.58
	l-57.604-23.835l-34.754,25.247L51.12,399.013l25.23-34.785L52.479,306.66l-42.442-6.724l-0.037-87.682l42.422-6.754l23.835-57.604
	L51.01,113.142l61.979-62.021l34.785,25.23l57.568-23.872l6.724-42.442l87.682-0.036l6.754,42.422l57.604,23.835l34.754-25.247
	L460.882,112.99z"/>
<circle style="fill:#FFFFFF;" cx="255.998" cy="255.999" r="159.998"/>
<path style="fill:#6A80FF;" d="M120.824,263.726L120.824,263.726c0-20.912,16.953-37.865,37.865-37.865h25.648v75.728h-25.648
	C137.776,301.591,120.824,284.638,120.824,263.726z"/>
<polygon style="fill:#D8D8E4;" points="304.333,179.794 184.335,225.863 184.335,301.591 304.333,347.659 "/>
<path d="M511.965,212.063c-0.002-4.917-3.578-9.103-8.436-9.873l-36.912-5.849l-19.584-47.227l21.942-30.254
	c2.887-3.98,2.452-9.469-1.026-12.944l-62.021-61.979c-3.479-3.478-8.969-3.907-12.946-1.017l-30.224,21.957l-47.261-19.554
	l-5.873-36.894c-0.773-4.855-4.96-8.428-9.876-8.428c-0.001,0-0.003,0-0.004,0l-87.682,0.036c-4.917,0.002-9.104,3.579-9.873,8.435
	l-5.849,36.914l-47.228,19.583L118.86,43.026c-3.979-2.886-9.469-2.452-12.944,1.026l-61.978,62.021
	c-3.477,3.479-3.907,8.968-1.018,12.946l21.958,30.225l-19.556,47.26l-36.894,5.874c-4.856,0.773-8.43,4.962-8.428,9.879
	l0.036,87.682c0.002,4.917,3.579,9.104,8.436,9.873l36.913,5.848l19.584,47.227l-21.943,30.254
	c-2.887,3.98-2.452,9.469,1.026,12.945l62.021,61.978c3.479,3.477,8.967,3.907,12.946,1.017l30.224-21.957l47.261,19.555
	l5.873,36.894c0.773,4.855,4.96,8.428,9.876,8.428c0.001,0,0.003,0,0.004,0l87.682-0.036c4.917-0.002,9.104-3.579,9.873-8.435
	l5.849-36.914l47.228-19.583l30.254,21.943c3.979,2.888,9.469,2.452,12.944-1.026l61.978-62.021
	c3.477-3.479,3.907-8.968,1.018-12.946l-21.958-30.225l19.556-47.259l36.894-5.875c4.856-0.773,8.43-4.962,8.428-9.879
	L511.965,212.063z M458.008,296.628c-3.435,0.547-6.338,2.839-7.668,6.052l-23.835,57.603c-1.33,3.213-0.895,6.887,1.149,9.701
	l20.229,27.847l-49.909,49.944l-27.875-20.218c-2.815-2.043-6.489-2.474-9.701-1.143l-57.568,23.872
	c-3.213,1.332-5.503,4.237-6.047,7.672l-5.389,34.01l-70.607,0.029l-5.411-33.991c-0.547-3.435-2.839-6.338-6.053-7.668
	l-57.604-23.835c-1.231-0.51-2.53-0.76-3.822-0.76c-2.08,0-4.143,0.649-5.879,1.91l-27.846,20.229l-49.943-49.909l20.217-27.875
	c2.042-2.815,2.475-6.489,1.143-9.701l-23.871-57.568c-1.332-3.213-4.237-5.502-7.673-6.047l-34.011-5.388l-0.028-70.608
	l33.99-5.412c3.435-0.546,6.338-2.839,7.668-6.052l23.835-57.604c1.33-3.213,0.895-6.887-1.149-9.701L64.12,114.17l49.909-49.944
	l27.875,20.217c2.815,2.042,6.489,2.474,9.701,1.143l57.568-23.872c3.213-1.332,5.503-4.237,6.047-7.672l5.389-34.01l70.607-0.029
	l5.411,33.991c0.547,3.435,2.839,6.338,6.053,7.668l57.604,23.835c3.214,1.33,6.887,0.894,9.701-1.15l27.846-20.229l49.943,49.91
	l-20.217,27.875c-2.042,2.815-2.475,6.489-1.143,9.702l23.872,57.568c1.332,3.212,4.237,5.502,7.673,6.046l34.01,5.389l0.028,70.607
	L458.008,296.628z"/>
<path d="M149.937,149.937c49.404-49.406,125.371-58.324,184.738-21.688c4.699,2.9,10.861,1.442,13.762-3.258
	c2.9-4.7,1.441-10.861-3.258-13.762c-32.017-19.757-70.355-28.351-107.955-24.192c-38.188,4.221-74.208,21.537-101.43,48.757
	c-26.154,26.154-42.766,59.274-48.038,95.781c-5.098,35.288,1.179,72.019,17.672,103.43c1.788,3.406,5.264,5.354,8.862,5.353
	c1.566,0,3.157-0.37,4.64-1.148c4.891-2.567,6.772-8.613,4.205-13.502C92.457,267.281,103.228,196.645,149.937,149.937z"/>
<path d="M362.195,150.067c1.947,1.947,4.492,2.918,7.039,2.918c2.558,0,5.118-0.979,7.075-2.933
	c3.906-3.899,3.894-10.247-0.002-14.157l-0.14-0.14c-3.928-3.883-10.241-3.832-14.125,0.096c-3.883,3.927-3.831,10.275,0.097,14.159
	C362.143,150.015,362.191,150.062,362.195,150.067z"/>
<path d="M387.007,163.557c-4.7,2.901-6.158,9.062-3.258,13.762c36.643,59.369,27.726,135.339-21.684,184.748
	c-47.29,47.29-121.021,57.525-179.303,24.885c-4.82-2.697-10.913-0.98-13.611,3.839c-2.699,4.818-0.98,10.913,3.838,13.611
	c25.29,14.164,54.206,21.58,83.257,21.58c7.335,0,14.684-0.474,21.979-1.43c37.379-4.903,71.261-21.62,97.983-48.341
	c27.223-27.223,44.539-63.246,48.759-101.435c4.155-37.603-4.438-75.943-24.199-107.959
	C397.867,162.115,391.707,160.656,387.007,163.557z"/>
<path d="M149.446,361.574c-3.884-3.928-10.216-3.961-14.143-0.078c-3.927,3.883-3.961,10.215-0.078,14.142l0.568,0.571
	c1.953,1.953,4.512,2.929,7.071,2.929s5.118-0.976,7.071-2.929c3.905-3.905,3.905-10.237,0-14.143L149.446,361.574z"/>
<path d="M300.75,356.995c1.16,0.445,2.374,0.665,3.583,0.665c1.995,0,3.975-0.597,5.665-1.759c2.714-1.865,4.336-4.948,4.336-8.241
	V179.794c0-3.293-1.622-6.376-4.336-8.241c-2.714-1.866-6.172-2.275-9.248-1.094l-118.268,45.403h-23.794
	c-26.393,0-47.863,21.472-47.863,47.864c0,26.393,21.472,47.864,47.863,47.864h23.794L300.75,356.995z M294.334,333.109l-20-7.678
	v-61.704c0-5.523-4.478-10-10-10s-10,4.477-10,10v54.026l-59.999-23.034v-61.983l99.999-38.391V333.109z M130.823,263.727
	c0-15.365,12.5-27.865,27.864-27.865h15.647v55.728h-15.647C143.323,291.591,130.823,279.091,130.823,263.727z"/>
<path d="M264.334,240.387c5.522,0,10-4.477,10-10v-0.146c0-5.523-4.478-10-10-10s-10,4.477-10,10v0.146
	C254.334,235.91,258.811,240.387,264.334,240.387z"/>
<path d="M328.47,289.141c1.952,1.953,4.511,2.929,7.07,2.929s5.119-0.977,7.071-2.929c14.013-14.014,14.013-36.815,0-50.827
	c-3.905-3.905-10.235-3.905-14.143,0c-3.905,3.905-3.905,10.237,0,14.142c6.215,6.215,6.215,16.329,0,22.545
	C324.563,278.904,324.563,285.236,328.47,289.141z"/>
<path d="M353.272,299.803c-3.905,3.905-3.905,10.237,0,14.142c1.953,1.953,4.512,2.929,7.071,2.929s5.118-0.977,7.071-2.929
	c27.689-27.69,27.689-72.745,0-100.435c-3.905-3.905-10.235-3.905-14.143,0c-3.905,3.905-3.905,10.237,0,14.142
	C373.165,247.543,373.165,279.91,353.272,299.803z"/>
<g>
</g>
<g>
</g>
<g>
</g>
<g>
</g>
<g>
</g>
<g>
</g>
<g>
</g>
<g>
</g>
<g>
</g>
<g>
</g>
<g>
</g>
<g>
</g>
<g>
</g>
<g>
</g>
<g>
</g>
</svg>
