<?xml version="1.0" encoding="iso-8859-1"?>
<!-- Generator: Adobe Illustrator 19.0.0, SVG Export Plug-In . SVG Version: 6.00 Build 0)  -->
<svg version="1.1" id="Capa_1" xmlns="http://www.w3.org/2000/svg" xmlns:xlink="http://www.w3.org/1999/xlink" x="0px" y="0px"
	 viewBox="0 0 512 512" style="enable-background:new 0 0 512 512;" xml:space="preserve">
<path style="fill:#72D8FF;" d="M322.007,112V39.261c0-16.16-13.101-29.261-29.261-29.261H47.268
	c-16.16,0-29.261,13.101-29.261,29.261v433.478c0,16.16,13.101,29.261,29.261,29.261h245.478c16.16,0,29.261-13.101,29.261-29.261
	V333L322.007,112L322.007,112z"/>
<rect x="18.011" y="74" style="fill:#FFFFFF;" width="304" height="353.92"/>
<path style="fill:#FF5D5D;" d="M361.524,300.775c19.37,0,35.072-15.702,35.072-35.072s-15.702-35.072-35.072-35.072V300.775z"/>
<path style="fill:#FFB954;" d="M187.415,313.172h-57.438c-26.197,0-47.435-21.237-47.435-47.435l0,0
	c0-26.197,21.237-47.435,47.435-47.435h57.438V313.172z"/>
<polygon style="fill:#6A80FF;" points="187.41,313.196 187.41,380.421 146.586,380.421 146.586,313.172 "/>
<polygon style="fill:#ADE5FF;" points="187.41,313.196 187.415,218.302 361.524,148.182 361.524,383.224 "/>
<polygon style="fill:#D8D8E4;" points="316.842,365.253 361.524,383.224 361.524,148.182 316.842,166.177 "/>
<path style="fill:#FFFFFF;" d="M74.007,77.733v27.641c0,17.673,14.327,32,32,32s32-14.327,32-32V77.733H74.007z"/>
<path style="fill:#5A54E0;" d="M18.007,77.733l-8,27.641c0,17.673,14.327,32,32,32s32-14.327,32-32V77.733H18.007z"/>
<path style="fill:#FFFFFF;" d="M202.007,77.733v27.641c0,17.673,14.327,32,32,32s32-14.327,32-32V77.733H202.007z"/>
<g>
	<path style="fill:#5A54E0;" d="M138.007,77.733v27.641c0,17.673,14.327,32,32,32s32-14.327,32-32V77.733H138.007z"/>
	<path style="fill:#5A54E0;" d="M266.007,77.733v27.641c0,17.673,14.327,32,32,32s32-14.327,32-32l-8-27.641
		C322.007,77.733,266.007,77.733,266.007,77.733z"/>
</g>
<path d="M149.007,52h42c5.522,0,10-4.477,10-10s-4.478-10-10-10h-42c-5.522,0-10,4.477-10,10S143.484,52,149.007,52z"/>
<path d="M170.007,473.76c2.63,0,5.21-1.07,7.069-2.93c1.86-1.86,2.931-4.44,2.931-7.07s-1.07-5.21-2.931-7.07
	c-1.859-1.87-4.439-2.93-7.069-2.93s-5.21,1.06-7.07,2.93c-1.86,1.86-2.93,4.44-2.93,7.07s1.069,5.21,2.93,7.07
	C164.797,472.689,167.377,473.76,170.007,473.76z"/>
<path d="M316.837,311.09c-2.63,0-5.21,1.07-7.07,2.93c-1.86,1.86-2.93,4.431-2.93,7.07c0,2.63,1.069,5.21,2.93,7.07
	c1.86,1.859,4.44,2.93,7.07,2.93c2.64,0,5.21-1.07,7.069-2.93c1.87-1.86,2.931-4.44,2.931-7.07c0-2.64-1.061-5.21-2.931-7.07
	C322.047,312.16,319.477,311.09,316.837,311.09z"/>
<path d="M371.524,221.763v-73.581c0-3.322-1.65-6.428-4.403-8.287s-6.249-2.23-9.332-0.989l-25.781,10.383v-19.3
	c5.025-6.922,8-15.426,8-24.615c0-0.94-0.133-1.876-0.395-2.78l-7.769-26.842c0.101-0.57,0.163-1.154,0.163-1.753V39.261
	C332.007,17.612,314.395,0,292.747,0H47.268C25.62,0,8.007,17.612,8.007,39.261V74c0,0.599,0.062,1.183,0.163,1.753l-7.769,26.842
	c-0.262,0.904-0.395,1.84-0.395,2.78c0,9.189,2.975,17.692,8,24.615v342.75C8.007,494.388,25.62,512,47.268,512h245.479
	c21.648,0,39.261-17.612,39.261-39.261v-90.608l25.785,10.371c1.203,0.484,2.47,0.723,3.73,0.723c1.968,0,3.922-0.581,5.6-1.714
	c2.752-1.859,4.401-4.965,4.401-8.286v-73.582c20.054-4.562,35.072-22.524,35.072-43.939
	C406.596,244.287,391.578,226.325,371.524,221.763z M256.007,105.375c0,12.131-9.869,22-22,22s-22-9.869-22-22V87.733h44V105.375z
	 M192.007,105.375c0,12.131-9.869,22-22,22s-22-9.869-22-22V87.733h44V105.375z M128.007,105.375c0,12.131-9.869,22-22,22
	s-22-9.869-22-22V87.733h44V105.375z M64.007,105.375c0,12.131-9.869,22-22,22c-11.698,0-21.294-9.177-21.963-20.711l5.479-18.93
	h38.483L64.007,105.375L64.007,105.375z M276.007,87.733h38.483l5.479,18.93c-0.669,11.534-10.265,20.711-21.963,20.711
	c-12.131,0-22-9.869-22-22V87.733H276.007z M47.268,20h245.479c10.62,0,19.261,8.64,19.261,19.261V64h-284V39.261
	C28.007,28.64,36.648,20,47.268,20z M312.007,417.917h-242c-5.522,0-10,4.478-10,10s4.478,10,10,10h242v34.822
	c0,10.62-8.641,19.261-19.261,19.261H47.268c-10.62,0-19.261-8.641-19.261-19.261V144.966c4.382,1.554,9.092,2.408,14,2.408
	c12.81,0,24.29-5.771,32-14.841c7.71,9.07,19.19,14.841,32,14.841s24.29-5.771,32-14.841c7.71,9.07,19.19,14.841,32,14.841
	s24.29-5.771,32-14.841c7.71,9.07,19.19,14.841,32,14.841s24.29-5.771,32-14.841c7.71,9.07,19.19,14.841,32,14.841
	c4.908,0,9.618-0.854,14-2.408v12.377l-126.529,50.958h-55.501c-31.67,0-57.436,25.765-57.436,57.435s25.766,57.435,57.436,57.435
	h6.608v57.249c0,5.522,4.478,10,10,10h40.824c5.522,0,10-4.478,10-10v-52.425l114.598,46.091L312.007,417.917L312.007,417.917z
	 M177.41,303.172h-47.433c-20.642,0-37.436-16.793-37.436-37.435s16.794-37.435,37.436-37.435h47.438L177.41,303.172z
	 M156.585,323.172h20.824v47.249h-20.824V323.172z M351.524,368.424l-154.108-61.982v-81.386l109.426-44.07v103.348
	c0,5.522,4.478,10,10,10s10-4.478,10-10V172.93l24.683-9.941v205.435H351.524z M371.524,288.688v-45.97
	c8.861,3.87,15.072,12.714,15.072,22.986C386.596,275.974,380.385,284.818,371.524,288.688z"/>
<path d="M501.995,256h-31.99c-5.522,0-10,4.478-10,10s4.478,10,10,10h31.99c5.522,0,10-4.478,10-10S507.517,256,501.995,256z"/>
<path d="M427.937,258.93c-1.86,1.86-2.93,4.44-2.93,7.07s1.069,5.21,2.93,7.069c1.86,1.86,4.44,2.931,7.07,2.931
	s5.21-1.07,7.069-2.931c1.86-1.859,2.931-4.439,2.931-7.069s-1.07-5.21-2.931-7.07c-1.859-1.86-4.439-2.93-7.069-2.93
	C432.367,256,429.797,257.069,427.937,258.93z"/>
<path d="M428.96,219.324c2.56,0,5.118-0.976,7.071-2.929l19.53-19.53c3.905-3.905,3.905-10.237,0-14.143
	c-3.906-3.905-10.236-3.905-14.143,0l-19.53,19.53c-3.905,3.905-3.905,10.237,0,14.143
	C423.842,218.348,426.401,219.324,428.96,219.324z"/>
<path d="M436.113,314.017c-3.906-3.904-10.236-3.904-14.143,0c-3.905,3.905-3.905,10.237,0,14.143l20.183,20.183
	c1.953,1.952,4.512,2.929,7.071,2.929s5.118-0.977,7.071-2.929c3.905-3.905,3.905-10.237,0-14.143L436.113,314.017z"/>
<g>
</g>
<g>
</g>
<g>
</g>
<g>
</g>
<g>
</g>
<g>
</g>
<g>
</g>
<g>
</g>
<g>
</g>
<g>
</g>
<g>
</g>
<g>
</g>
<g>
</g>
<g>
</g>
<g>
</g>
</svg>
